<svg xmlns="http://www.w3.org/2000/svg" width="390" height="844" viewBox="0 0 390 844">
    <defs><linearGradient id="bg" x2="0" y2="1"><stop stop-color="#fbfdfc"/><stop offset="1" stop-color="#f2f8f5"/></linearGradient><linearGradient id="brand" x2="1"><stop stop-color="#1478c9"/><stop offset="1" stop-color="#26ae60"/></linearGradient><filter id="shadow"><feDropShadow dx="0" dy="18" stdDeviation="22" flood-color="#082846" flood-opacity=".12"/></filter></defs>
    <rect width="390" height="844" fill="url(#bg)"/>
    <rect width="390" height="66" fill="#fff" stroke="#dce7ed"/>
    <circle cx="28" cy="33" r="15" fill="#26ae60"/><path d="M21 33l5 5 10-12" fill="none" stroke="#fff" stroke-width="3"/>
    <text x="52" y="39" font-family="Arial,sans-serif" font-size="20" font-weight="700" fill="#082846">CoverageFit</text>
    <text x="378" y="39" text-anchor="end" font-family="Arial,sans-serif" font-size="13" font-weight="700" fill="#153d5d">Save &amp; exit</text>
    <text x="12" y="93" font-family="Arial,sans-serif" font-size="11" font-weight="700" letter-spacing="1" fill="#158a48">YOUR GOALS</text>
    <text x="378" y="93" text-anchor="end" font-family="Arial,sans-serif" font-size="12" fill="#607487">Step 1 of 5</text>
    <rect x="12" y="108" width="366" height="6" rx="3" fill="#e6eef2"/><rect x="12" y="108" width="73" height="6" rx="3" fill="url(#brand)"/>
    <rect x="12" y="132" width="366" height="620" rx="22" fill="#fff" stroke="#dce7ed" filter="url(#shadow)"/>
    <text x="32" y="174" font-family="Arial,sans-serif" font-size="11" font-weight="700" letter-spacing="1.3" fill="#158a48">A QUICK START</text>
    <text x="32" y="214" font-family="Arial,sans-serif" font-size="28" font-weight="700" fill="#082846">What’s bringing you</text>
    <text x="32" y="250" font-family="Arial,sans-serif" font-size="28" font-weight="700" fill="#082846">here today?</text>
    <text x="32" y="278" font-family="Arial,sans-serif" font-size="14" fill="#607487">Choose the closest answer. You can always go back.</text>
    <rect x="32" y="310" width="326" height="58" rx="14" fill="#fff" stroke="#dce7ed"/><text x="48" y="344" font-family="Arial,sans-serif" font-size="15" font-weight="700" fill="#082846">My price changed</text><circle cx="341" cy="339" r="10" fill="none" stroke="#b9c9d3" stroke-width="2"/><rect x="32" y="378" width="326" height="58" rx="14" fill="#fff" stroke="#dce7ed"/><text x="48" y="412" font-family="Arial,sans-serif" font-size="15" font-weight="700" fill="#082846">I’m buying a home</text><circle cx="341" cy="407" r="10" fill="none" stroke="#b9c9d3" stroke-width="2"/><rect x="32" y="446" width="326" height="58" rx="14" fill="#fff" stroke="#dce7ed"/><text x="48" y="480" font-family="Arial,sans-serif" font-size="15" font-weight="700" fill="#082846">My renewal is coming up</text><circle cx="341" cy="475" r="10" fill="none" stroke="#b9c9d3" stroke-width="2"/><rect x="32" y="514" width="326" height="58" rx="14" fill="#fff" stroke="#dce7ed"/><text x="48" y="548" font-family="Arial,sans-serif" font-size="15" font-weight="700" fill="#082846">I’m simply comparing</text><circle cx="341" cy="543" r="10" fill="none" stroke="#b9c9d3" stroke-width="2"/><rect x="32" y="582" width="326" height="58" rx="14" fill="#fff" stroke="#dce7ed"/><text x="48" y="616" font-family="Arial,sans-serif" font-size="15" font-weight="700" fill="#082846">Something else</text><circle cx="341" cy="611" r="10" fill="none" stroke="#b9c9d3" stroke-width="2"/>
  </svg>